<svg xmlns="http://www.w3.org/2000/svg" viewBox="0 0 200.1 86.809"><defs><style>.a{fill:#202020;}.b{fill:#64dd17;}</style></defs><g transform="translate(0 0.009)"><path class="a" d="M5.4,44.6V58.3c0,6.9,2.6,10.9,9.4,10.9,4.9,0,7.9-2.1,9.2-3.8V55.2H15.5v-5H29.1V67a16.358,16.358,0,0,1-14.3,7.4C4.9,74.4,0,68.3,0,59V44c0-9.3,4.9-15.4,14.8-15.4,5.7,0,10.5,2.2,13.1,8.4l-4.4,2.2c-1.9-3.3-3.8-5.5-8.7-5.5C8,33.7,5.4,37.7,5.4,44.6Z"/><path class="a" d="M37.5,51.5c0-8.2,4.1-13.3,12.8-13.3,8.9,0,12.8,4.9,12.8,13.3v9.6c0,8.4-3.9,13.3-12.8,13.3-8.7,0-12.8-5.1-12.8-13.3Zm5.1,9.2c0,6,2,9,7.7,9s7.7-2.9,7.7-9V51.9c0-6-2-9-7.7-9s-7.7,2.9-7.7,9Z"/><path class="a" d="M78.9,73.9,68.1,38.7h5.6l8.2,29.2h.3l8.2-29.2H96L85.2,73.9Z"/><path class="b" d="M115.8,29.1c10.9,0,17.4,3,17.4,15.2,0,10.8-6.2,15-16.8,15h-4.2V73.9H101.6V29.1Zm-3.6,21h3.4c5.1,0,6.8-1.7,6.8-6,0-4.5-1.7-6-6.8-6h-3.4Z"/><path class="b" d="M164.9,73.9h-8.4l-.7-3.5a11.065,11.065,0,0,1-8.9,4c-6,0-10.8-3.9-10.8-10.3,0-9.3,9-12.7,18.5-12.7V49.9c0-1.9-1-3.5-4.7-3.5a23.459,23.459,0,0,0-10,2.6l-2.7-7.1a26.173,26.173,0,0,1,13.6-4c9.5,0,14.1,4.7,14.1,12.9V73.9ZM154.6,63.4V58.2c-4.6,0-8.4,1.5-8.4,4.9,0,1.9,1.3,3.1,3.5,3.1A5.621,5.621,0,0,0,154.6,63.4Z"/><path class="b" d="M184.7,86.8h-9.8L179,73.9h-1.4l-9.7-35.6h10.8l4.4,22.9h.3l5.8-22.9h10.9Z"/><path class="b" d="M102.9,20.9l-3.4,2.7A42.4,42.4,0,0,0,77.4,7.3,42.189,42.189,0,0,0,50,7.5L48.8,3.3A43.149,43.149,0,0,1,79,2.2,44.033,44.033,0,0,1,102.9,20.9Z"/></g></svg>